<svg xmlns="http://www.w3.org/2000/svg" viewBox="0 0 100 80" fill="none" stroke="#002333">
    <path d="M25.6 26.3C31.2886 26.3 35.9001 21.6885 35.9001 16C35.9001 10.3115 31.2886 5.70001 25.6 5.70001C19.9115 5.70001 15.3 10.3115 15.3 16C15.3 21.6885 19.9115 26.3 25.6 26.3Z" stroke-width="2" stroke-miterlimit="10" stroke-linecap="round" stroke-linejoin="round" />
    <path d="M29.9001 13.5L21.2001 18.6" stroke-width="2" stroke-miterlimit="10" stroke-linecap="round" stroke-linejoin="round" />
    <path d="M27 55.2C32.6885 55.2 37.2999 50.5885 37.2999 44.9C37.2999 39.2114 32.6885 34.6 27 34.6C21.3114 34.6 16.7 39.2114 16.7 44.9C16.7 50.5885 21.3114 55.2 27 55.2Z" stroke-width="2" stroke-miterlimit="10" stroke-linecap="round" stroke-linejoin="round" />
    <path d="M25 40.3L29.1 49.6" stroke-width="2" stroke-miterlimit="10" stroke-linecap="round" stroke-linejoin="round" />
    <path d="M47.9 39.2C53.5885 39.2 58.2 34.5885 58.2 28.9C58.2 23.2114 53.5885 18.6 47.9 18.6C42.2114 18.6 37.6 23.2114 37.6 28.9C37.6 34.5885 42.2114 39.2 47.9 39.2Z" stroke-width="2" stroke-miterlimit="10" stroke-linecap="round" stroke-linejoin="round" />
    <path d="M50.4 24.5L45.4 33.3" stroke-width="2" stroke-miterlimit="10" stroke-linecap="round" stroke-linejoin="round" />
    <path d="M47.9 18.5V12.4H75V69H47.9V39.9" stroke-width="2" stroke-miterlimit="10" stroke-linecap="round" stroke-linejoin="round" />
    <path d="M47.9 50.3H75V30.3H58.9" stroke-width="2" stroke-miterlimit="10" stroke-linecap="round" stroke-linejoin="round" />
    <path d="M75 15.5H80V72.1H52.9V69" stroke-width="2" stroke-miterlimit="10" stroke-linecap="round" stroke-linejoin="round" />
    <path d="M75 53.4H80V33.4H75" stroke-width="2" stroke-miterlimit="10" stroke-linecap="round" stroke-linejoin="round" />
    <path d="M80.1 18.9H85.2V75.5H58V72.4" stroke-width="2" stroke-miterlimit="10" stroke-linecap="round" stroke-linejoin="round" />
    <path d="M80.1 56.8H85.2V36.8H80.2" stroke-width="2" stroke-miterlimit="10" stroke-linecap="round" stroke-linejoin="round" />
</svg>